# xmcd
#
# Track frame offsets:
#	150
#	12415
#	26545
#	46892
#	62152
#	78317
#	93937
#	106582
#	120427
#	132280
#	147720
#	159890
#	169782
#	183365
#	193102
#	204807
#	219265
#	236727
#	251790
#	262442
#	276100
#	296465
#	308345
#	322267
#	337807
#
# Disc length: 4682
#
# Revision: 3
# Processed by: cddbd v1.5.1PL0 Copyright (c) Steve Scherf et al.
# Submitted via: audiograbber 1.83.01
# Normalized: r2:DSETVAR1
#
DISCID=62124819
DTITLE=Various Artist - Megablues CD1
DYEAR=2001
DGENRE=Blues
TTITLE0=Elmore James - Dust My Broom
TTITLE1=Albert King - Born Under A Bad Sign
TTITLE2=B.B. King - The Thrill Is Gone
TTITLE3=Big Joe Williams and Sonny Boy Williamson - Baby Please Don't Go
TTITLE4=Muddy Waters - Mannish Boy
TTITLE5=Screaminig Jay Hamkins - I Put A Spell On You
TTITLE6=Otis Rush - Three Times A Fool
TTITLE7=Memphis Slim - Messin' Around
TTITLE8=Jimmy Reed - Honest I Do
TTITLE9=Georges Baze - Little Red Rooster
TTITLE10=Billy Emerson - Tomorrow Never Comes
TTITLE11=John Lee Hooker - Dimples
TTITLE12=Lightnin' Hopkins - Mojo Hand
TTITLE13=John Mayall and The Bluesbreakers - I'm Your Witchdoctor
TTITLE14=Lonnie Brooks - Figure Head
TTITLE15=Mighty Joe Young - Hard Times
TTITLE16=Chris Farlowe - Summertime
TTITLE17=Louisiana Red - Had A Date With Barbara Last Night
TTITLE18=Junior Parker - Mystery Train
TTITLE19=T.S. McPhee - Ain't Gonna Cry No More
TTITLE20=Junior Wells and Buddy Guy - So Tired
TTITLE21=L.C. McKinley - I'm So Satisfied
TTITLE22=Pee-Wee Crayton - The Telephone Is Ringing
TTITLE23=Robert Cray - The Score
TTITLE24=T-Bone Walker - T-Bone Shuffle
EXTD=
EXTT0=
EXTT1=
EXTT2=
EXTT3=
EXTT4=
EXTT5=
EXTT6=
EXTT7=
EXTT8=
EXTT9=
EXTT10=
EXTT11=
EXTT12=
EXTT13=
EXTT14=
EXTT15=
EXTT16=
EXTT17=
EXTT18=
EXTT19=
EXTT20=
EXTT21=
EXTT22=
EXTT23=
EXTT24=
PLAYORDER=
